<svg xmlns="http://www.w3.org/2000/svg" viewBox="54 18 36 36" enable-background="new 54 18 36 36"><style type="text/css">.st0{fill:#19BCB9;} .st1{fill:none;stroke:#FFFFFF;stroke-width:0.5;stroke-linecap:round;stroke-miterlimit:10;} .st2{fill:none;stroke:#FFFFFF;stroke-width:0.5;stroke-linecap:round;stroke-linejoin:round;stroke-miterlimit:10;}</style><circle class="st0" cx="72" cy="36" r="18"/><path class="st1" d="M81.4 45.5h-18.8c-1.8 0-3.3-1.5-3.3-3.3v-7.8c0-1.8 1.5-3.3 3.3-3.3h18.7c1.8 0 3.3 1.5 3.3 3.3v7.8c.1 1.8-1.4 3.3-3.2 3.3zm-5.3-2.7h-8.1c-.8 0-1.4-.6-1.4-1.4 0-.8.6-1.4 1.4-1.4h8.1c.8 0 1.4.6 1.4 1.4 0 .8-.7 1.4-1.4 1.4zm-11.8 0h-1.7c-.8 0-1.4-.6-1.4-1.4 0-.8.6-1.4 1.4-1.4h1.7c.8 0 1.4.6 1.4 1.4 0 .8-.6 1.4-1.4 1.4zm17.2 0h-1.8c-.8 0-1.4-.6-1.4-1.4 0-.8.6-1.4 1.4-1.4h1.8c.8 0 1.4.6 1.4 1.4 0 .8-.6 1.4-1.4 1.4zm-4.6-7.2c-.7 0-1.4-.6-1.4-1.4v-.1c0-.7.6-1.4 1.4-1.4.7 0 1.4.6 1.4 1.4v.1c0 .8-.6 1.4-1.4 1.4zm-3.5 0c-.7 0-1.4-.6-1.4-1.4v-.1c0-.7.6-1.4 1.4-1.4.8 0 1.4.6 1.4 1.4v.1c-.1.8-.7 1.4-1.4 1.4zm-3.6 0c-.7 0-1.4-.6-1.4-1.4v-.1c0-.7.6-1.4 1.4-1.4.7 0 1.4.6 1.4 1.4v.1c-.1.8-.7 1.4-1.4 1.4zm-3.6 0c-.7 0-1.4-.6-1.4-1.4v-.1c0-.7.6-1.4 1.4-1.4.8 0 1.4.6 1.4 1.4v.1c-.1.8-.7 1.4-1.4 1.4zm-3.7 0c-.7 0-1.4-.6-1.4-1.4v-.1c0-.7.6-1.4 1.4-1.4.8 0 1.4.6 1.4 1.4v.1c0 .8-.6 1.4-1.4 1.4zm4.5 3.6c-.7 0-1.4-.6-1.4-1.4v-.1c0-.7.6-1.4 1.4-1.4.7 0 1.4.6 1.4 1.4v.1c0 .8-.6 1.4-1.4 1.4zm15.9-5.7v5c0 .4-.3.7-.7.7h-1.4c-.4 0-.7-.3-.7-.7v-2.4c0-.2-.1-.4-.3-.5l-.3-.1c-.1-.1-.2-.2-.2-.3-.1-.2-.1-.4-.1-.6v-1.1c0-.4.3-.7.7-.7h2.3c.4 0 .7.3.7.7zm-19.4 5.7h-.9c-.8 0-1.4-.6-1.4-1.4 0-.8.6-1.4 1.4-1.4h.9c.8 0 1.4.6 1.4 1.4 0 .7-.7 1.4-1.4 1.4zm7.1 0c-.7 0-1.4-.6-1.4-1.4v-.1c0-.7.6-1.4 1.4-1.4.8 0 1.4.6 1.4 1.4v.1c0 .8-.6 1.4-1.4 1.4zm3.6 0c-.7 0-1.4-.6-1.4-1.4v-.1c0-.7.6-1.4 1.4-1.4.8 0 1.4.6 1.4 1.4v.1c0 .8-.6 1.4-1.4 1.4zm3.7 0c-.7 0-1.4-.6-1.4-1.4v-.1c0-.7.6-1.4 1.4-1.4.8 0 1.4.6 1.4 1.4v.1c0 .8-.6 1.4-1.4 1.4zm1.3-4.6v-.3"/><path class="st2" d="M64.7 30.1s-.4-4.1 3.4-4.5h4.2s1.8-.1 1.6-2.2c0 0-.3-1.4.9-1.4 0 0 .8 0 .8 1 0 0 .2 1.8-.7 3.1 0 0-.9 1.3-2.7 1.4h-3.8s-1.4-.1-1.8 1.3c0 0-.1.5 0 1.3h-1.9z"/></svg>