<svg xmlns="http://www.w3.org/2000/svg" viewBox="-129.1 343.1 108 108" enable-background="new -129.1 343.1 108 108"><style type="text/css">.st0{fill:#19BCB9;} .st1{fill:none;stroke:#FFFFFF;stroke-width:1.5;stroke-linecap:round;stroke-miterlimit:10;} .st2{fill:none;stroke:#FFFFFF;stroke-width:1.5;stroke-linecap:round;stroke-linejoin:round;stroke-miterlimit:10;}</style><circle class="st0" cx="-75" cy="397.1" r="53.9"/><path class="st1" d="M-46.9 425.6h-56.1c-5.5 0-10-4.5-10-10v-23.3c0-5.5 4.5-10 10-10h56.1c5.5 0 10 4.5 10 10v23.3c0 5.5-4.5 10-10 10zm-15.9-8h-24.4c-2.3 0-4.2-1.9-4.2-4.2s1.9-4.2 4.2-4.2h24.4c2.3 0 4.2 1.9 4.2 4.2s-1.9 4.2-4.2 4.2zm-35.3 0h-5.2c-2.3 0-4.2-1.9-4.2-4.2s1.9-4.2 4.2-4.2h5.2c2.3 0 4.2 1.9 4.2 4.2s-1.9 4.2-4.2 4.2zm51.6 0h-5.4c-2.3 0-4.2-1.9-4.2-4.2s1.9-4.2 4.2-4.2h5.4c2.3 0 4.2 1.9 4.2 4.2s-1.9 4.2-4.2 4.2zm-13.7-21.8c-2.2 0-4.1-1.8-4.1-4.1v-.2c0-2.2 1.8-4.1 4.1-4.1 2.2 0 4.1 1.8 4.1 4.1v.2c0 2.3-1.8 4.1-4.1 4.1zm-10.7 0c-2.2 0-4.1-1.8-4.1-4.1v-.2c0-2.2 1.8-4.1 4.1-4.1s4.1 1.8 4.1 4.1v.2c0 2.3-1.8 4.1-4.1 4.1zm-10.8 0c-2.2 0-4.1-1.8-4.1-4.1v-.2c0-2.2 1.8-4.1 4.1-4.1 2.2 0 4.1 1.8 4.1 4.1v.2c0 2.3-1.9 4.1-4.1 4.1zm-10.7 0c-2.2 0-4.1-1.8-4.1-4.1v-.2c0-2.2 1.8-4.1 4.1-4.1s4.1 1.8 4.1 4.1v.2c-.1 2.3-1.9 4.1-4.1 4.1zm-11.1 0c-2.2 0-4.1-1.8-4.1-4.1v-.2c0-2.2 1.8-4.1 4.1-4.1s4.1 1.8 4.1 4.1v.2c0 2.3-1.8 4.1-4.1 4.1zm13.6 10.8c-2.2 0-4.1-1.8-4.1-4.1v-.2c0-2.2 1.8-4.1 4.1-4.1 2.2 0 4.1 1.8 4.1 4.1v.2c0 2.3-1.8 4.1-4.1 4.1zm47.6-17v15c0 1.1-.9 2-2 2h-4.1c-1.1 0-2-.9-2-2v-5.5c0-.6.1-1.2 0-1.8-.1-.6-.3-1.1-.8-1.4-.3-.1-.6-.2-.8-.4-.2-.2-.5-.5-.6-.8-.3-.5-.4-1.1-.4-1.7v-3.4c0-1.1.9-2 2-2h6.9c.8-.1 1.8.9 1.8 2zm-58.3 17h-2.7c-2.3 0-4.2-1.9-4.2-4.2s1.9-4.2 4.2-4.2h2.7c2.3 0 4.2 1.9 4.2 4.2s-2 4.2-4.2 4.2zm21.5 0c-2.2 0-4.1-1.8-4.1-4.1v-.2c0-2.2 1.8-4.1 4.1-4.1s4.1 1.8 4.1 4.1v.2c0 2.3-1.8 4.1-4.1 4.1zm10.8 0c-2.2 0-4.1-1.8-4.1-4.1v-.2c0-2.2 1.8-4.1 4.1-4.1s4.1 1.8 4.1 4.1v.2c0 2.3-1.9 4.1-4.1 4.1zm11 0c-2.2 0-4.1-1.8-4.1-4.1v-.2c0-2.2 1.8-4.1 4.1-4.1s4.1 1.8 4.1 4.1v.2c0 2.3-1.8 4.1-4.1 4.1zm4-13.7v-.8"/><path class="st2" d="M-96.8 379.4s-1.3-12.2 10.1-13.4h12.5s5.5-.4 4.7-6.7c0 0-.8-4.1 2.7-4.3 0 0 2.5-.1 2.5 3 0 0 .6 5.4-2.2 9.2 0 0-2.8 3.8-8 4.1h-11.3s-4.2-.3-5.3 4c0 0-.3 1.6 0 4l-5.7.1z"/></svg>