<svg xmlns="http://www.w3.org/2000/svg" viewBox="-143 343 108 108" enable-background="new -143 343 108 108"><style type="text/css">.st0{fill:#19BCB9;} .st1{fill:#231F20;} .st2{fill:none;stroke:#FFFFFF;stroke-width:1.5;stroke-linecap:round;stroke-miterlimit:10;} .st3{fill:none;stroke:#FFFFFF;stroke-width:1.5;stroke-linecap:round;stroke-linejoin:round;stroke-miterlimit:10;}</style><path class="st0" d="M-49.6 451h-78.7c-8 0-14.6-6.5-14.6-14.6v-78.7c0-8 6.5-14.6 14.6-14.6h78.8c8 0 14.6 6.5 14.6 14.6v78.8c-.1 8-6.7 14.5-14.7 14.5z"/><path class="st1" d="M-65 363.1h.1-.1zm-31.3 56.1zm36.8-52.9h.1-.1zm-31.3 56.2c0-.1-.1-.1 0 0z"/><path class="st2" d="M-88.9 369s5.6-7.1 12.8-1.9c0 0 2.9 1.4 3.3 6.2 0 0 .7 4.2-2.9 8.3 0 0-1.9 2.6-10.7 9.8h23.9s6.9-.5 9.2 6.6c0 0 .5 2.5.6 5.9v10.3c0 1.9-1.5 3.5-3.5 3.5h-65.8c-2 0-3.6-1.6-3.6-3.6v-10.4s-1.2-11.8 10.5-12.2h23.7s-9.1-6.6-11.9-10.9c0 0-3.3-4.4-1.5-9.8 0 0 1-3.7 5.2-5.1 0 0 3.5-1.1 6.1.2.3-.1 2.8.8 4.6 3.1z"/><path class="st3" d="M-125.4 401.6s13.4 12.1 23.2-2.1c0 0 11.6 16 26.7 0 0 0 12.4 16.3 22.6 0"/></svg>