<svg xmlns="http://www.w3.org/2000/svg" viewBox="54 18 36 36" enable-background="new 54 18 36 36"><style type="text/css">.st0{fill:#19BCB9;} .st1{fill:#231F20;} .st2{fill:none;stroke:#FFFFFF;stroke-width:0.5;stroke-linecap:round;stroke-miterlimit:10;} .st3{fill:none;stroke:#FFFFFF;stroke-width:0.5;stroke-linecap:round;stroke-linejoin:round;stroke-miterlimit:10;}</style><path class="st0" d="M85.1 54h-26.2c-2.7 0-4.9-2.2-4.9-4.9v-26.2c0-2.7 2.2-4.9 4.9-4.9h26.3c2.7 0 4.9 2.2 4.9 4.9v26.3c-.1 2.6-2.3 4.8-5 4.8z"/><path class="st1" d="M80 24.7zm1.8 1.1zm-10.4 18.7z"/><path class="st2" d="M72 26.7s1.9-2.4 4.3-.6c0 0 1 .5 1.1 2.1 0 0 .2 1.4-1 2.8 0 0-.6.9-3.6 3.3h8s2.3-.2 3.1 2.2c0 0 .2.8.2 2v3.4c0 .6-.5 1.2-1.2 1.2h-21.9c-.7 0-1.2-.5-1.2-1.2v-3.5s-.4-3.9 3.5-4.1h7.9s-3-2.2-4-3.6c0 0-1.1-1.5-.5-3.3 0 0 .3-1.2 1.7-1.7 0 0 1.2-.4 2 .1.2-.2 1 .1 1.6.9z"/><path class="st3" d="M59.8 37.5s4.5 4 7.7-.7c0 0 3.9 5.3 8.9 0 0 0 4.1 5.4 7.5 0"/></svg>