<svg xmlns="http://www.w3.org/2000/svg" viewBox="0 0 144 144" enable-background="new 0 0 144 144"><style type="text/css">.st0{fill:#FFFFFF;}</style><path class="st0" d="M105.6 25.3s.1-.1.2-.1c-.1.1-.1.1-.2.1zm-33.6-25c-39.8 0-72 32.2-72 72s32.2 72 72 72 72-32.2 72-72-32.2-72-72-72zm-.2 127.8c-12.2 0-23.5-3.9-32.7-10.6.7.1 1.4.1 2.1.1h41.8c8.6 0 15.7-7 15.7-15.7v-31.1h-20.8c2.1 3 3.3 6.7 3.3 10.6 0 10.4-8.5 18.9-18.9 18.9-10.4 0-18.9-8.5-18.9-18.9 0-3.9 1.2-7.6 3.3-10.6h-21.1v31.2c0 .5 0 1.1.1 1.6-6-8.9-9.5-19.6-9.5-31.1 0-30.7 24.9-55.6 55.6-55.6 30.7 0 55.6 24.9 55.6 55.6s-24.9 55.6-55.6 55.6zm-17.5-13.9zm0 .1zm8.1-46.7c-7.7 0-14 6.3-14 14s6.3 14 14 14 14-6.3 14-14-6.2-14-14-14zm.1 24.5c-5.9 0-10.6-4.7-10.6-10.6 0-5.9 4.7-10.6 10.6-10.6 5.9 0 10.6 4.7 10.6 10.6 0 5.9-4.8 10.6-10.6 10.6zm20.5-47.9h-37.4v18.3h-3v-18.3h-2.2v18.3h-3v-17.9c-.7.2-1.4.4-2.1.7v17.1h-3v-15.4c-4 2.8-6.7 7.5-6.7 12.8v8.5h23.1c3.4-3.6 8.3-5.8 13.6-5.8s10.2 2.2 13.6 5.8h22.7v-8.5c.1-8.6-7-15.6-15.6-15.6zm9.6 15.9c0 1.7-1.4 3-3 3h-6.8c-1.7 0-3-1.4-3-3v-7c0-1.7 1.4-3 3-3h6.8c1.7 0 3 1.4 3 3v7z"/></svg>