<svg xmlns="http://www.w3.org/2000/svg" viewBox="90 18 36 36" enable-background="new 90 18 36 36"><style type="text/css">.st0{fill:#FFFFFF;}</style><path class="st0" d="M116.4 24.2zm-8.4-6.2c-9.9 0-18 8-18 18s8.1 18 18 18 18-8 18-18-8.1-18-18-18zm-.1 32c-3 0-5.9-1-8.2-2.6h10.9c2.2 0 3.9-1.8 3.9-3.9v-7.8h-5.2c.5.8.8 1.7.8 2.6 0 2.6-2.1 4.7-4.7 4.7s-4.7-2.1-4.7-4.7c0-1 .3-1.9.8-2.6h-5.3v8.2c-1.5-2.2-2.4-4.9-2.4-7.8 0-7.7 6.2-13.9 13.9-13.9s13.9 6.2 13.9 13.9-6 13.9-13.7 13.9zm-2.3-15.2c-1.9 0-3.5 1.6-3.5 3.5s1.6 3.5 3.5 3.5 3.5-1.6 3.5-3.5-1.5-3.5-3.5-3.5zm0 6.2c-1.5 0-2.7-1.2-2.7-2.6 0-1.5 1.2-2.7 2.7-2.7s2.7 1.2 2.7 2.7c0 1.4-1.2 2.6-2.7 2.6zm5.2-12h-9.3v4.6h-.8v-4.6h-.6v4.6h-.8v-4.5l-.5.2v4.3h-.8v-3.9c-1 .7-1.7 1.9-1.7 3.2v2.1h5.8c.8-.9 2.1-1.5 3.4-1.5s2.6.6 3.4 1.5h5.7v-2.1c.1-2.2-1.7-3.9-3.8-3.9zm2.4 4c0 .4-.3.8-.8.8h-1.7c-.4 0-.8-.3-.8-.8v-1.8c0-.4.4-.8.8-.8h1.7c.4 0 .8.4.8.8v1.8z"/></svg>