<?xml version="1.0" encoding="utf-8"?>
<!-- Generator: Adobe Illustrator 19.1.0, SVG Export Plug-In . SVG Version: 6.00 Build 0)  -->
<svg version="1.1" id="Layer_1" xmlns="http://www.w3.org/2000/svg" xmlns:xlink="http://www.w3.org/1999/xlink" x="0px" y="0px"
	 viewBox="-79.9 182.2 149.9 101.8" style="enable-background:new -79.9 182.2 149.9 101.8;" xml:space="preserve">
<style type="text/css">
	.st0{fill:#FDFDFE;}
</style>
<path class="st0" d="M-28.2,203.6c0,3.5-1,7.2-3,10.9c-2,3.7-4.8,7-8.3,10c-3.4,2.9-7,5.2-10.9,6.9c-3.9,1.7-7.5,2.5-10.8,2.5
	c-4.3,0-7.7-1.5-10.4-4.4s-4-6.7-4-11.3c0-4.3,1.3-8.6,4-13.1c2.7-4.4,6.3-8.3,10.8-11.5c3.3-2.3,6.9-4.2,10.9-5.7
	c4-1.4,7.6-2.2,10.9-2.2c3.2,0,5.8,0.8,7.7,2.4c1.9,1.5,2.9,3.7,2.9,6.3c0,1.1-0.2,2.4-0.5,3.8C-28.5,200-28.2,201.9-28.2,203.6z
	 M-29.1,194.4c0-2.4-0.8-4.3-2.5-5.7c-1.7-1.4-3.8-2.1-6.5-2.1c-5.4,0-10.8,1.8-16.3,5.3c-5.3,3.4-9.5,7.8-12.9,13.2
	c-3.5,5.6-5.3,11-5.3,16.4c0,3.4,1,6.3,3.1,8.4c2,2.2,4.7,3.3,7.9,3.3c6.5,0,13.1-3.4,19.7-10c6.6-6.7,10.2-13.7,10.9-21
	c-0.8,1.4-2.2,3.1-4.3,5c-2,1.9-3.4,2.8-4.1,2.8c-0.2,0-0.3-0.1-0.3-0.3c0-0.1,0.2-0.3,0.5-0.5c3.8-2.1,6.5-4.8,8.2-8.3
	c0-2.9-0.8-5.2-2.5-6.9c-1.7-1.7-4-2.5-6.9-2.5c-5.4,0-10.9,2.9-16.7,8.6c-5.7,5.7-8.5,11.4-8.5,16.9c0,2.2,0.5,4,1.5,5.3
	c1,1.4,2.4,2.1,4.1,2.1c0.8,0,1.6-0.2,2.4-0.7c0.8-0.5,1.2-0.9,1.2-1.4c0-0.1-0.1-0.2-0.1-0.2l-0.3,0.1c-0.2,0.2-0.7,0.4-1.4,0.4
	c-1.1,0-1.7-0.7-1.7-1.9c0-0.8,0.3-1.5,0.8-2c0.5-0.5,1.2-0.8,1.9-0.8c1.5,0,2.2,0.8,2.2,2.5c0,1.2-0.5,2.3-1.6,3.2
	s-2.3,1.4-3.7,1.4c-2,0-3.7-0.8-5-2.5c-1.4-1.7-2-3.7-2-6.1c0-5.7,3-11.3,8.9-17c6-5.7,11.9-8.5,17.8-8.5c2.5,0,4.8,0.6,6.8,1.8
	c2,1.2,3.4,2.8,4.1,4.7C-29.3,196.3-29.1,195.4-29.1,194.4L-29.1,194.4z M-1.9,220.6c0,0.5-1.7,2.8-5.1,6.8c-2.8,3.3-5,5-6.6,5
	c-1.1,0-2-0.4-2.7-1.2c-0.7-0.8-1.1-1.8-1.1-3c0-1.1,0.2-2,0.7-2.9s1.5-2.7,3.4-5.3c1.9-2.8,2.8-4.6,2.8-5.3c0-0.9-0.5-1.4-1.5-1.4
	c-3.4,0-8.6,6.3-15.7,18.9c-1.1-0.1-1.8-0.1-2.1-0.1c-0.8,0-1.6,0.1-2.3,0.1l5.4-8.6c3.1-5,4.7-8,4.7-9.3c0-0.7-0.3-1.1-0.9-1.1
	c-1.2,0-3.5,2.5-7,7.5c-0.2,0.3-0.4,0.5-0.5,0.5c-0.1,0-0.2-0.1-0.2-0.2c0-0.1,0.1-0.2,0.1-0.3l0.7-0.9c3.5-4.8,6-7.2,7.2-7.2
	c0.8,0,1.5,0.4,2,1.1c0.5,0.7,0.8,1.6,0.8,2.6c0,1.5-0.9,3.5-2.6,6.2c2.7-3.8,4.8-6.4,6.3-7.8c1.5-1.4,2.8-2.1,4.1-2.1
	c1,0,1.9,0.4,2.6,1.2c0.7,0.8,1.1,1.9,1.1,3.1c0,1.5-1.1,4-3.2,7.2c-2.2,3.3-3.3,5.4-3.3,6.3c0,0.9,0.5,1.4,1.4,1.4
	c2.1,0,5.7-3.7,10.8-11.1c0.1-0.2,0.2-0.4,0.4-0.4C-1.9,220.4-1.9,220.5-1.9,220.6z M15.7,220.7c0,0.1-0.2,0.4-0.7,0.9l-1.5,1.9
	c-4.8,6-9,8.9-12.4,8.9c-1.7,0-3-0.6-4.1-1.8c-1.1-1.2-1.7-2.7-1.7-4.4c0-4.2,2.9-7.9,8.7-11.1c3.1-1.7,5.6-2.5,7.5-2.5
	c0.8,0,1.5,0.2,2.1,0.8c0.6,0.5,0.9,1.1,0.9,1.8c0,1.7-1.1,3.1-3.3,4.3c-2.2,1.2-5.9,2.3-11,3.3c-1.6,2.4-2.4,4.4-2.4,6
	c0,2,1.1,3,3.3,3c3.7,0,8.2-3.6,13.5-10.8c0.3-0.4,0.5-0.5,0.7-0.5C15.7,220.5,15.7,220.5,15.7,220.7L15.7,220.7z M12.8,214.2
	c0-0.8-0.4-1.1-1.2-1.1c-1.2,0-2.8,0.8-4.8,2.5c-2,1.7-4,3.9-5.9,6.7c3.4-0.9,6.2-2.1,8.5-3.7C11.6,217,12.8,215.6,12.8,214.2
	L12.8,214.2z M24.8,250.4c0,3.5-1,7.2-3,10.9c-2,3.7-4.8,7-8.3,10c-3.4,2.9-7,5.2-10.9,6.9c-3.9,1.7-7.5,2.5-10.8,2.5
	c-4.3,0-7.7-1.5-10.4-4.4s-4-6.7-4-11.4c0-4.3,1.3-8.6,4-13.1s6.3-8.3,10.8-11.5c3.2-2.3,6.9-4.2,10.8-5.7c4-1.4,7.6-2.2,10.9-2.2
	c3.2,0,5.8,0.8,7.7,2.4c1.9,1.5,2.9,3.7,2.9,6.3c0,1.1-0.2,2.4-0.5,3.8C24.4,246.8,24.8,248.6,24.8,250.4L24.8,250.4z M23.8,241.2
	c0-2.4-0.8-4.3-2.5-5.7c-1.7-1.4-3.8-2.1-6.5-2.1c-5.4,0-10.8,1.8-16.3,5.3c-5.3,3.4-9.5,7.8-12.9,13.2c-3.5,5.6-5.3,11-5.3,16.4
	c0,3.4,1,6.3,3.1,8.4c2,2.2,4.7,3.3,7.9,3.3c6.5,0,13.1-3.4,19.7-10c6.6-6.7,10.2-13.7,11-21c-0.8,1.4-2.2,3.1-4.3,5
	c-2,1.9-3.4,2.8-4.1,2.8c-0.2,0-0.3-0.1-0.3-0.3c0-0.1,0.2-0.3,0.5-0.5c3.8-2.1,6.5-4.8,8.2-8.3c0-2.9-0.8-5.2-2.5-6.9
	c-1.7-1.7-4-2.5-6.9-2.5c-5.4,0-10.9,2.9-16.7,8.6c-5.7,5.7-8.5,11.4-8.5,16.9c0,2.2,0.5,4,1.5,5.3c1,1.4,2.4,2.1,4.1,2.1
	c0.8,0,1.6-0.2,2.4-0.7s1.2-0.9,1.2-1.4c0-0.1-0.1-0.2-0.1-0.2l-0.3,0.1c-0.3,0.3-0.7,0.4-1.4,0.4c-1.1,0-1.7-0.7-1.7-1.9
	c0-0.8,0.3-1.5,0.8-2s1.2-0.8,1.9-0.8c1.5,0,2.2,0.8,2.2,2.5c0,1.2-0.5,2.3-1.6,3.2c-1.1,0.9-2.3,1.4-3.7,1.4c-2,0-3.7-0.8-5-2.5
	s-2-3.7-2-6.1c0-5.7,3-11.3,8.9-17c5.9-5.7,11.9-8.5,17.8-8.5c2.5,0,4.8,0.6,6.8,1.8s3.4,2.8,4.1,4.7
	C23.7,243.1,23.8,242.2,23.8,241.2L23.8,241.2z M51.1,267.4c0,0.5-1.7,2.8-5.1,6.8c-2.8,3.3-5,5-6.6,5c-1.1,0-2-0.4-2.7-1.2
	s-1.1-1.8-1.1-3c0-1.1,0.2-2,0.7-2.9c0.4-0.9,1.5-2.7,3.4-5.3c1.9-2.8,2.8-4.6,2.8-5.3c0-0.9-0.5-1.4-1.5-1.4
	c-3.4,0-8.6,6.3-15.7,18.9c-1.1-0.1-1.8-0.1-2.1-0.1c-0.8,0-1.6,0.1-2.3,0.1l5.4-8.6c3.1-4.9,4.7-8,4.7-9.3c0-0.7-0.3-1.1-0.9-1.1
	c-1.2,0-3.5,2.5-7,7.5c-0.2,0.3-0.4,0.5-0.5,0.5c-0.1,0-0.2-0.1-0.2-0.2c0-0.1,0.1-0.2,0.1-0.3l0.7-0.9c3.5-4.8,6-7.2,7.2-7.2
	c0.8,0,1.5,0.4,2,1.1c0.5,0.7,0.8,1.6,0.8,2.6c0,1.5-0.9,3.5-2.6,6.2c2.7-3.8,4.8-6.4,6.3-7.8c1.5-1.4,2.8-2.1,4.1-2.1
	c1,0,1.9,0.4,2.6,1.2c0.7,0.8,1.1,1.9,1.1,3.1c0,1.5-1.1,4-3.2,7.2c-2.2,3.3-3.3,5.4-3.3,6.3c0,0.9,0.5,1.4,1.4,1.4
	c2.1,0,5.7-3.7,10.8-11.1c0.1-0.2,0.2-0.4,0.4-0.4C51,267.2,51.1,267.2,51.1,267.4L51.1,267.4z M68.7,267.4c0,0.1-0.2,0.4-0.7,0.9
	l-1.5,1.9c-4.8,6-9,8.9-12.4,8.9c-1.7,0-3-0.6-4.1-1.8c-1.1-1.2-1.7-2.7-1.7-4.4c0-4.2,2.9-7.9,8.7-11.1c3.1-1.7,5.6-2.5,7.5-2.5
	c0.8,0,1.5,0.2,2.1,0.8c0.6,0.5,0.9,1.1,0.9,1.8c0,1.7-1.1,3.1-3.3,4.3c-2.2,1.2-5.9,2.2-11,3.3c-1.6,2.4-2.4,4.4-2.4,6
	c0,2,1.1,3,3.3,3c3.7,0,8.2-3.6,13.5-10.8c0.3-0.4,0.5-0.5,0.7-0.5C68.6,267.2,68.7,267.3,68.7,267.4L68.7,267.4z M65.7,261
	c0-0.8-0.4-1.1-1.2-1.1c-1.2,0-2.8,0.8-4.8,2.5c-2,1.7-4,3.9-5.9,6.7c3.4-0.9,6.2-2.1,8.5-3.7C64.6,263.9,65.7,262.3,65.7,261
	L65.7,261z M45.9,223.2c-0.1,0.4-0.8,0.7-2.1,0.7H30.1l-5.9,12.5c-0.5,1-0.8,1.5-1.1,1.5c-0.1,0-0.1,0-0.2-0.1
	c-0.4-0.2-0.4-0.7,0.1-1.7l5.8-12.3H14.3c-0.8,0-1.1-0.2-1.1-0.7c0.1-0.4,0.8-0.7,2.1-0.7h13.9L35,210c0.5-1.2,1-1.7,1.4-1.6
	c0.5,0.2,0.5,0.7,0,1.7c-1.3,2.8-3.2,6.9-5.8,12.3h14.1C45.6,222.5,46,222.8,45.9,223.2L45.9,223.2z"/>
</svg>
