<svg xmlns="http://www.w3.org/2000/svg" viewBox="54 18 36 36" enable-background="new 54 18 36 36"><style type="text/css">.st0{fill:#19BCB9;} .st1{fill:none;stroke:#FFFFFF;stroke-width:0.5;stroke-miterlimit:10;} .st2{fill:#231F20;}</style><circle class="st0" cx="72" cy="36" r="18"/><path class="st1" d="M81.2 33c-1.2.5-5 2.8-10.6 11.4v.1c-.1.1-.3.3-.5 0v-.1c-.8-1-3.2-3.8-7.8-6.3-.1-.1-.4-.3.1-.6l4.4-2.7.2-.1c.2-.1.5-.2.6.2.6 1 2.1 3.8 2.5 4.8 0 0 4.7-10.5 10.4-13.6.3-.1.8-.3.7.4-.2 1.5-.4 4.5.2 6.1v.1c0-.1.1.2-.2.3z"/><path class="st2" d="M80.4 24.8zm-10.3 18.5z"/></svg>