<svg xmlns="http://www.w3.org/2000/svg" viewBox="-143 343 108 108" enable-background="new -143 343 108 108"><style type="text/css">.st0{fill:#19BCB9;} .st1{fill:none;stroke:#FFFFFF;stroke-width:1.5;stroke-miterlimit:10;} .st2{fill:#231F20;}</style><circle class="st0" cx="-89.5" cy="397.5" r="53.5"/><path class="st1" d="M-62.9 388.4c-3.7 1.6-15.4 8.5-32.3 34.8v.1c-.1.1-.1.1-.1.2-.3.4-.8.9-1.5 0l-.1-.2c0-.1-.1-.1-.1-.1-2.5-3.2-9.8-11.7-23.8-19.4-.2-.2-1.1-1 .2-1.8h.1l13.4-8.4.6-.4c.6-.3 1.4-.5 1.9.5v.1c1.8 3.2 6.3 11.7 7.5 14.8 0 0 14.5-32.2 31.7-41.7 0 0 .1 0 .1-.1 0 0 .1 0 .1-.1 0 0 .1 0 .1-.1.1 0 .1-.1.1-.1.8-.4 2.4-.9 2.2 1.2v.1c-.5 4.5-1.2 13.8.6 18.5 0 0 0 .1.1.2-.2.5.1 1.5-.8 1.9z"/><path class="st2" d="M-65.4 363.4l.2-.1-.2.1zm-31.5 56.5c0-.1-.1-.1-.1-.1l.1.1z"/></svg>