<svg xmlns="http://www.w3.org/2000/svg" viewBox="162 18 36 36" enable-background="new 162 18 36 36"><style type="text/css">.st0{fill:#19BCB9;} .st1{fill:#231F20;} .st2{fill:none;stroke:#FFFFFF;stroke-width:0.5;stroke-miterlimit:10;} .st3{fill:#19BCB9;stroke:#FFFFFF;stroke-width:0.5;stroke-miterlimit:10;} .st4{fill:#FFFFFF;} .st5{fill:#19BCB9;stroke:#19BCB9;stroke-width:0.5;stroke-miterlimit:10;} .st6{fill:none;stroke:#FFFFFF;stroke-width:0.5;stroke-linecap:round;stroke-linejoin:round;stroke-miterlimit:10;}</style><circle class="st0" cx="180" cy="36" r="18"/><path class="st1" d="M189.1 24.5zm-10.6 19z"/><path class="st2" d="M187.8 28.2v8.2c-.7-.4-1.5-.6-2.3-.6-2.7 0-4.9 2.2-4.9 4.9 0 1.6.7 3 1.9 3.9h-11.3c-.9 0-1.7-.8-1.7-1.7v-14.7c0-.9.8-1.7 1.7-1.7h14.9c.9 0 1.7.8 1.7 1.7z"/><path class="st3" d="M186.2 31.2v4.7l-.7-.1c-2.7 0-4.9 2.2-4.9 4.9 0 .9.2 1.7.6 2.4h-10.3v-12h15.3z"/><path class="st2" d="M172.3 32.8h2.2v2.1h-2.2v-2.1zm3.5 0h2.2v2.1h-2.2v-2.1zm3.5 0h2.2v2.1h-2.2v-2.1zm3.5 0h2.2v2.1h-2.2v-2.1zm-3.5 3.4h2.2v2.1h-2.2v-2.1zm-3.5 0h2.2v2.1h-2.2v-2.1zm-3.5 0h2.2v2.1h-2.2v-2.1zm0 3.5h2.2v2.1h-2.2v-2.1zm3.5 0h2.2v2.1h-2.2v-2.1z"/><path class="st0" d="M174.5 28.8c-.9 0-1.6-.7-1.6-1.6v-1.5c0-.9.7-1.6 1.6-1.6s1.6.7 1.6 1.6v1.5c0 .9-.8 1.6-1.6 1.6z"/><path class="st4" d="M174.5 24.4c.8 0 1.4.6 1.4 1.4v1.5c0 .8-.6 1.4-1.4 1.4-.8 0-1.4-.6-1.4-1.4v-1.5c0-.8.6-1.4 1.4-1.4m0-.5c-1 0-1.9.8-1.9 1.9v1.5c0 1 .8 1.9 1.9 1.9s1.9-.8 1.9-1.9v-1.5c-.1-1.1-.9-1.9-1.9-1.9z"/><path class="st0" d="M182.8 28.9c-.9 0-1.6-.7-1.6-1.6v-1.5c0-.9.7-1.6 1.6-1.6.9 0 1.6.7 1.6 1.6v1.5c0 .8-.7 1.6-1.6 1.6z"/><path class="st4" d="M182.8 24.4c.8 0 1.4.6 1.4 1.4v1.5c0 .8-.6 1.4-1.4 1.4-.8 0-1.4-.6-1.4-1.4v-1.5c0-.8.6-1.4 1.4-1.4m0-.5c-1 0-1.9.8-1.9 1.9v1.5c0 1 .8 1.9 1.9 1.9s1.9-.8 1.9-1.9v-1.5c0-1.1-.9-1.9-1.9-1.9z"/><circle class="st5" cx="185.5" cy="40.8" r="6.8"/><path class="st3" d="M190.5 40.8c0 2.7-2.2 4.9-4.9 4.9-1.1 0-2.2-.4-3-1-.5-.4-1-.9-1.3-1.5-.4-.7-.6-1.5-.6-2.4 0-2.7 2.2-4.9 4.9-4.9.2 0 .5 0 .7.1.6.1 1.1.3 1.6.5 1.5.7 2.6 2.4 2.6 4.3z"/><path class="st6" d="M185.1 38.8v2.6m0 0h1.7"/></svg>