<svg xmlns="http://www.w3.org/2000/svg" viewBox="0 0 216 216" enable-background="new 0 0 216 216"><style type="text/css">.st0{fill:#19BCB9;} .st1{fill:#231F20;} .st2{fill:none;stroke:#FFFFFF;stroke-width:3;stroke-miterlimit:10;} .st3{fill:#19BCB9;stroke:#FFFFFF;stroke-width:3;stroke-miterlimit:10;} .st4{fill:#FFFFFF;} .st5{fill:#19BCB9;stroke:#19BCB9;stroke-width:8;stroke-miterlimit:10;} .st6{fill:none;stroke:#FFFFFF;stroke-width:3;stroke-linecap:round;stroke-linejoin:round;stroke-miterlimit:10;}</style><circle class="st0" cx="108" cy="108" r="106.4"/><path class="st1" d="M161.8 40l.3-.1c-.2 0-.3.1-.3.1zm-62.7 112.4c0-.1-.1-.1-.2-.2l.2.2z"/><path class="st2" d="M154.1 61.8v48.7c-4-2.1-8.6-3.3-13.4-3.3-16.1 0-29.1 13-29.1 29.1 0 9.4 4.4 17.7 11.3 23h-66.6c-5.5 0-10-4.5-10-10v-87.5c0-5.5 4.5-10 10-10h87.8c5.5 0 10 4.5 10 10z"/><path class="st3" d="M144.9 79.7v27.8c-1.4-.2-2.8-.3-4.2-.3-16.1 0-29.1 13-29.1 29.1 0 5.2 1.3 10 3.7 14.2h-61.1v-70.8h90.7z"/><path class="st2" d="M62.5 88.9h12.9v12.5h-12.9zm20.8 0h12.9v12.5h-12.9zm20.6 0h12.9v12.5h-12.9zm20.6 0h12.9v12.5h-12.9zm-20.6 20h12.9v12.5h-12.9zm-20.6 0h12.9v12.5h-12.9zm-20.8 0h12.9v12.5h-12.9zm0 21.2h12.9v12.5h-12.9zm20.8 0h12.9v12.5h-12.9z"/><path class="st0" d="M75.2 65.6c-5.3 0-9.6-4.3-9.6-9.6v-8.6c0-5.3 4.3-9.6 9.6-9.6s9.6 4.3 9.6 9.6v8.6c0 5.3-4.3 9.6-9.6 9.6z"/><path class="st4" d="M75.2 39.3c4.5 0 8.1 3.7 8.1 8.1v8.6c0 4.5-3.7 8.1-8.1 8.1-4.5 0-8.1-3.7-8.1-8.1v-8.6c0-4.5 3.6-8.1 8.1-8.1m0-3c-6.1 0-11.1 5-11.1 11.1v8.6c0 6.1 5 11.1 11.1 11.1s11.1-5 11.1-11.1v-8.6c0-6.1-5-11.1-11.1-11.1z"/><path class="st0" d="M124.5 65.8c-5.3 0-9.6-4.3-9.6-9.6v-8.6c0-5.3 4.3-9.6 9.6-9.6s9.6 4.3 9.6 9.6v8.6c.1 5.2-4.2 9.6-9.6 9.6z"/><path class="st4" d="M124.5 39.4c4.5 0 8.1 3.7 8.1 8.1v8.6c0 4.5-3.7 8.1-8.1 8.1-4.5 0-8.1-3.7-8.1-8.1v-8.6c0-4.4 3.7-8.1 8.1-8.1m0-3c-6.1 0-11.1 5-11.1 11.1v8.6c0 6.1 5 11.1 11.1 11.1s11.1-5 11.1-11.1v-8.6c.1-6.1-4.9-11.1-11.1-11.1z"/><circle class="st5" cx="140.7" cy="136.5" r="40.2"/><path class="st3" d="M169.8 136.3c0 16.1-13 29.1-29.1 29.1-6.7 0-12.9-2.3-17.8-6.1-3.1-2.4-5.7-5.4-7.6-8.8-2.4-4.2-3.7-9-3.7-14.2 0-16 13-29.1 29.1-29.1 1.4 0 2.9.1 4.2.3 3.3.5 6.3 1.5 9.2 3 9.3 4.8 15.7 14.6 15.7 25.8z"/><path class="st6" d="M137.9 124.3v15.4m0 0h10"/></svg>