<svg xmlns="http://www.w3.org/2000/svg" viewBox="54 18 36 36" enable-background="new 54 18 36 36"><style type="text/css">.st0{fill:#19BCB9;} .st1{fill:#231F20;} .st2{fill:none;stroke:#FFFFFF;stroke-width:0.5;stroke-linecap:round;stroke-miterlimit:10;} .st3{fill:#FFFFFF;}</style><circle class="st0" cx="72" cy="36" r="18"/><path class="st1" d="M80.1 24.5zm1.9 1.1zm-12.5 14.8zm1.9 1.1z"/><path class="st2" d="M79.6 39.1h-15.2c-.4 0-.8-.4-.8-.8v-10.1c0-.4.4-.8.8-.8h15.2c.4 0 .8.4.8.8v10.2c0 .4-.4.7-.8.7zm0 5.5h-15.2c-.4 0-.8-.4-.8-.8v-15.6c0-.4.4-.8.8-.8h15.2c.4 0 .8.4.8.8v15.6c0 .5-.4.8-.8.8zm-11.9-12.4s.8-1.1 1.5-.4c0 0 .3-.1 2.1 2.4 0 0 1.2 1.6 2.5.7 0 0 1.3-1.3 2.2-.6 0 0 .9.3 2.6 2.5 0 0 .6.6-.5.7h-12.1s-.8.1-.6-.8c0-.1.6-2.5 2.3-4.5z"/><circle class="st2" cx="74.6" cy="30.6" r="1.6"/><path class="st3" d="M63.6 39.1h16.8v5.5h-16.8v-5.5z"/></svg>