<svg xmlns="http://www.w3.org/2000/svg" viewBox="-143 343 108 108" enable-background="new -143 343 108 108"><style type="text/css">.st0{fill:#19BCB9;} .st1{fill:#231F20;} .st2{fill:none;stroke:#FFFFFF;stroke-width:1.5;stroke-linecap:round;stroke-miterlimit:10;} .st3{fill:#FFFFFF;}</style><circle class="st0" cx="-89" cy="397" r="54"/><path class="st1" d="M-64.6 362.5l.2-.1-.2.1zm5.6 3.3l.2-.1c-.2 0-.2.1-.2.1zm-37.4 44.3c0-.1-.1-.1-.1-.1s0 .1.1.1zm5.6 3.3c0-.1-.1-.1-.1-.1s0 .1.1.1z"/><path class="st2" d="M-66.3 406.4h-45.6c-1.3 0-2.4-1.1-2.4-2.4v-30.5c0-1.3 1.1-2.4 2.4-2.4h45.6c1.3 0 2.4 1.1 2.4 2.4v30.6c0 1.3-1.1 2.3-2.4 2.3zm0 16.4h-45.6c-1.3 0-2.4-1.1-2.4-2.4v-46.9c0-1.3 1.1-2.4 2.4-2.4h45.6c1.3 0 2.4 1.1 2.4 2.4v46.9c0 1.4-1.1 2.4-2.4 2.4zm-35.6-37.1s2.3-3.3 4.4-1.3c0 0 .9-.2 6.3 7.2 0 0 3.7 4.7 7.4 2.1 0 0 4-3.8 6.5-1.9 0 0 2.7.9 7.7 7.4 0 0 1.7 1.9-1.6 2h-35.8s-2.3.2-1.8-2.3c0 0 1.8-7.4 6.9-13.2z"/><circle class="st2" cx="-81.3" cy="380.9" r="4.9"/><path class="st3" d="M-114.3 406.4h50.3v16.4h-50.3v-16.4z"/></svg>