<svg xmlns="http://www.w3.org/2000/svg" viewBox="-143 343 108 108" enable-background="new -143 343 108 108"><style type="text/css">.st0{fill:#19BCB9;} .st1{fill:#231F20;} .st2{fill:none;stroke:#FFFFFF;stroke-width:1.5;stroke-linecap:round;stroke-miterlimit:10;} .st3{fill:none;stroke:#FFFFFF;stroke-width:1.5;stroke-linecap:round;stroke-linejoin:round;stroke-miterlimit:10;} .st4{fill:none;stroke:#FFFFFF;stroke-width:1.5;stroke-miterlimit:10;}</style><path class="st0" d="M-49.6 451h-78.8c-8 0-14.6-6.5-14.6-14.6v-78.8c0-8 6.5-14.6 14.6-14.6h78.8c8 0 14.6 6.5 14.6 14.6v78.8c0 8.1-6.6 14.6-14.6 14.6z"/><path class="st1" d="M-65 363.1h.1-.1zm-31.3 56.1zm36.8-52.9h.1-.1zm-31.3 56.2c0-.1-.1-.1 0 0z"/><path class="st2" d="M-89 369.2s3.8-4.9 8.7-1.3c0 0 2 1 2.3 4.2 0 0 .5 2.8-2 5.7 0 0-1.3 1.8-7.3 6.6h16.3s4.7-.3 6.3 4.5c0 0 .3 1.7.4 4v4.4c0 2.7-2.2 4.9-4.9 4.9h-39.4c-2.9 0-5.2-2.3-5.2-5.2v-4.3s-.8-8 7.1-8.3h16.1s-6.2-4.5-8.1-7.4c0 0-2.3-3-1-6.6 0 0 .7-2.5 3.6-3.5 0 0 2.4-.7 4.2.1 0 .1 1.7.6 2.9 2.2z"/><path class="st3" d="M-113.8 391.5s9.1 8.3 15.8-1.4c0 0 7.9 10.9 18.1 0 0 0 8.4 11.1 15.3 0"/><path class="st4" d="M-63.2 424.5h-51.6c-3.3 0-6-2.7-6-6v-10c0-3.3 2.7-6 6-6h51.6c3.3 0 6 2.7 6 6v10c0 3.3-2.7 6-6 6z"/><path class="st3" d="M-120.8 412.3s11.8 8.9 20.4-1.5c0 0 10.2 11.8 23.4 0 0 0 10.9 12 19.8 0"/></svg>