<svg xmlns="http://www.w3.org/2000/svg" viewBox="54 18 36 36" enable-background="new 54 18 36 36"><style type="text/css">.st0{fill:#19BCB9;} .st1{fill:#231F20;} .st2{fill:none;stroke:#FFFFFF;stroke-width:0.5;stroke-linecap:round;stroke-miterlimit:10;} .st3{fill:none;stroke:#FFFFFF;stroke-width:0.5;stroke-linecap:round;stroke-linejoin:round;stroke-miterlimit:10;} .st4{fill:none;stroke:#FFFFFF;stroke-width:0.5;stroke-miterlimit:10;}</style><path class="st0" d="M85.1 54h-26.2c-2.7 0-4.9-2.2-4.9-4.9v-26.2c0-2.7 2.2-4.9 4.9-4.9h26.3c2.7 0 4.9 2.2 4.9 4.9v26.3c-.1 2.6-2.3 4.8-5 4.8z"/><path class="st1" d="M80 24.7zm1.8 1.1zm-10.4 18.7z"/><path class="st2" d="M72 26.7s1.3-1.6 2.9-.4c0 0 .7.3.8 1.4 0 0 .2.9-.7 1.9 0 0-.4.6-2.4 2.2h5.4s1.6-.1 2.1 1.5c0 0 .1.6.1 1.3v1.5c0 .9-.7 1.6-1.6 1.6h-13.1c-1 0-1.7-.8-1.7-1.7v-1.4s-.3-2.7 2.4-2.8h5.4s-2.1-1.5-2.7-2.5c0 0-.8-1-.3-2.2 0 0 .2-.8 1.2-1.2 0 0 .8-.2 1.4 0-.2.1.4.3.8.8z"/><path class="st3" d="M63.7 34.2s3 2.8 5.3-.5c0 0 2.6 3.6 6 0 0 0 2.8 3.7 5.1 0"/><path class="st4" d="M80.6 45.2h-17.2c-1.1 0-2-.9-2-2v-3.3c0-1.1.9-2 2-2h17.2c1.1 0 2 .9 2 2v3.3c0 1.1-.9 2-2 2z"/><path class="st3" d="M61.4 41.1s3.9 3 6.8-.5c0 0 3.4 3.9 7.8 0 0 0 3.6 4 6.6 0"/></svg>