<svg xmlns="http://www.w3.org/2000/svg" viewBox="90 18 36 36" enable-background="new 90 18 36 36"><style type="text/css">.st0{fill:#FFFFFF;}</style><path class="st0" d="M108 18c-9.9 0-18 8-18 18s8.1 18 18 18 18-8 18-18-8.1-18-18-18zm-.1 32c-3.1 0-6-1-8.3-2.7 6.8 2 11.8-2.8 11.8-2.8 3.4-3 4.1-6.7 4.2-8.7.1-.3.1-.7.1-1v-.4c1.5-1.1 2.1-2.2 2.2-2.2-.7.3-2.4.7-2.4.7 1.9-1.7 1.8-2.5 1.8-2.5-.9.8-2.5 1-2.8 1.1-.8-.9-1.9-1.4-3.2-1.4-2.5 0-4.5 2.1-4.5 4.8v.7c-6.4-.5-9.1-4.7-9.1-4.7-1.9 3.6 1.3 6 1.3 6-.9.1-2-.6-2-.6.1 3.9 3.6 4.5 3.6 4.5-1 .3-2 0-2 0 1.3 3.3 4.2 3.1 4.2 3.1-1.7 1.3-3.5 1.8-4.7 1.9-2.4-2.5-3.9-5.9-3.9-9.7 0-7.7 6.2-13.9 13.9-13.9s13.9 6.2 13.9 13.9-6.4 13.9-14.1 13.9z"/></svg>