<svg xmlns="http://www.w3.org/2000/svg" viewBox="-233 127 144 144" enable-background="new -233 127 144 144"><style type="text/css">.st0{fill:#FFFFFF;}</style><path class="st0" d="M-161 127c-39.8 0-72 32.2-72 72s32.2 72 72 72 72-32.2 72-72-32.2-72-72-72zm-.5 128.1c-12.4 0-23.9-4.1-33.1-10.9 27.4 7.8 47.1-11 47.1-11 13.6-11.9 16.3-26.9 16.6-34.8.3-1.3.4-2.6.4-4 0-.6 0-1.2-.1-1.7 5.8-4.3 8.4-8.6 8.6-8.8-2.6 1.3-9.4 2.6-9.8 2.6 7.8-6.7 7.3-10 7.3-10-3.8 3.1-9.9 4.2-11.2 4.5-3.3-3.5-7.8-5.6-12.8-5.6-10 0-18.1 8.5-18.1 19.1 0 1 .1 1.9.2 2.8-25.5-2.2-36.3-18.8-36.3-18.8-7.7 14.4 5.3 24 5.3 24-3.5.3-8-2.4-8-2.4.3 15.7 14.3 17.9 14.3 17.9-4.1 1.3-8.2.2-8.2.2 5.2 13.3 16.8 12.5 16.8 12.5-6.8 5.4-13.9 7.1-18.9 7.5-9.7-10-15.6-23.6-15.6-38.7 0-30.7 24.9-55.6 55.6-55.6s55.6 24.9 55.6 55.6-25 55.6-55.7 55.6z"/></svg>